<svg xmlns="http://www.w3.org/2000/svg" width="105" height="23" viewBox="0 0 105.006 23">
                                <g stroke="none" fill="#7e8792" stroke-width="1px">
                <path d="M41.706.587L36.88 22.742h3.87l1.046-5.326h4.12l1.024 5.326h3.89L46.445.587h-4.74zM45.54 14.29h-3.31l.866-4.786c.24-1.322.57-3.545.806-5.054h.087c.223 1.497.517 3.66.747 5.042l.804 4.8zM25.845 23V0H16.29M8.748 18.372h4.456l1.82 4.626h3.99L12.925 8.474M0 0v23L9.56 0M63.602 0h-3.97v8.09h-.065c-.45-.985-1.347-1.666-2.73-1.666-2.647 0-5.076 2.726-5.076 8.332 0 4.6 1.63 8.244 4.913 8.244 1.498 0 2.75-.968 3.327-2.105h.082l.224 1.846h3.428c-.058-1.382-.13-3.152-.13-4.59V0zm-3.97 12.846v4.238c0 .406-.046.755-.137 1.014-.37 1.305-1.05 1.61-1.64 1.61-1.292 0-2.13-1.77-2.13-4.88 0-2.704.588-5.017 2.185-5.017.93 0 1.51.986 1.664 2.08.058.316.058.66.058.956zM87.348 6.424c-1.512 0-2.554.705-3.336 1.94h-.063V0h-3.97v18.147c0 1.438-.077 3.26-.135 4.592h3.41l.22-1.922h.083c.832 1.563 1.754 2.18 3.138 2.18 2.906 0 5.148-3.025 5.148-8.68 0-4.472-1.504-7.894-4.496-7.894zm-1.63 13.283c-.54 0-1.214-.33-1.613-1.673-.084-.25-.157-.625-.157-1.026v-4.484c0-.298.072-.73.148-1.01.218-.88.852-1.704 1.605-1.704 1.52 0 2.174 1.962 2.174 4.81 0 3.13-.618 5.087-2.155 5.087zM105.006 13.896c0-4.65-1.888-7.5-5.293-7.5-3.525 0-6.224 3.224-6.224 8.59 0 5 2.326 7.928 6.586 7.928 1.56 0 3.185-.286 4.237-.742l-.535-2.87c-.756.284-1.78.55-2.975.55-1.885 0-3.403-.944-3.45-3.848l7.538.023c.072-.467.116-1.067.116-2.13zm-7.636-.714c.043-1.72.654-3.834 2.09-3.834 1.26 0 1.918 1.58 1.897 3.834H97.37zM71.887 6.424c-3.1 0-6.046 2.564-6.046 8.334 0 5.288 2.296 8.24 5.955 8.24h.032c2.388 0 5.933-1.724 5.933-8.333 0-5.143-2.263-8.24-5.873-8.24zm-.017 13.514h-.035c-1.617 0-2.06-2.52-2.06-5.25 0-2.26.352-5.206 2.028-5.206 1.582 0 1.957 2.945 1.957 5.206 0 2.378-.375 5.25-1.89 5.25z" stroke="none" fill="#7e8792" stroke-width="1px"></path>
            </g>
                            </svg>