<svg xmlns="http://www.w3.org/2000/svg" width="140" height="30" viewBox="0 0 139.995 30">
                                <g stroke="none" fill="#7e8792" stroke-width="1px">
                <path d="M34.85 15.702v-.023c.985-.144 1.745-1.81 1.745-3.808 0-2.022-.78-3.664-1.745-3.807L23.665 8.04v13.705h2.565v-6.043h1.42l6.255 6.043h3.428l-6.256-6.043h3.773zm-8.887-1.927V10.92h6.61c.574.048 1.025.666 1.025 1.427 0 .738-.452 1.356-1.026 1.428h-6.61zM19.93 11.54c0-1.833-.76-3.332-1.705-3.475L7.39 8.04V21.96h10.836v-.024c.944-.143 1.704-1.64 1.704-3.473 0-1.79-.725-3.26-1.64-3.46.914-.2 1.64-1.67 1.64-3.46zm-3.305 7.326h-6.61V16.01h6.61c.575.048 1.026.667 1.026 1.43 0 .76-.45 1.378-1.025 1.426zm0-5.496h-6.61v-2.854h6.61c.575.047 1.026.666 1.026 1.427s-.45 1.38-1.025 1.427z" stroke="none" fill="#7e8792" stroke-width="1px"></path><path d="M137.06 0H2.915C1.293 0 0 1.5 0 3.378V26.62C0 28.478 1.293 30 2.915 30H137.08c1.602 0 2.916-1.5 2.916-3.378V3.378C139.976 1.498 138.682 0 137.06 0zm-.964 21.84h-.02c0 1.855-1.294 3.378-2.916 3.378H6.814c-1.62 0-2.914-1.5-2.914-3.378V7.898c0-1.88 1.293-3.378 2.914-3.378H133.18c1.602 0 2.916 1.5 2.916 3.378V21.84z" stroke="none" fill="#7e8792" stroke-width="1px"></path><path d="M131.683 8.018c-.076 0-.15.004-.226.013V8.02h-7.348v.01c-.068-.007-.136-.01-.206-.01-1.17 0-2.135 1.094-2.135 2.474v3.117c0 1.355.964 2.473 2.134 2.473.1 0 .198-.008.295-.024h7.113v2.973h-7.84v-1.237h-2.442v1.308c0 1.356.945 2.475 2.136 2.475h.04v.023h8.12c.098.016.196.024.296.024 1.19 0 2.155-1.118 2.155-2.498v-3.14c0-1.38-.965-2.5-2.155-2.5-.055 0-.11.003-.164.008v-.007h-7.225v-2.9h7.122v1.355h2.545V10.59c0-1.43-.986-2.572-2.217-2.572zM91.045 8.184H88.91v13.561h11.72V19.27h-9.585v-3.52h5.788v-2.475h-5.788v-2.593h9.585V8.208h-9.585M115.715 15.702v-.023c.985-.144 1.745-1.81 1.745-3.808 0-2.022-.78-3.664-1.745-3.807L104.53 8.04v13.705h2.564v-6.043h1.42l6.256 6.043h3.428l-6.256-6.043h3.773zm-8.887-1.927V10.92h6.61c.574.048 1.025.666 1.025 1.427 0 .738-.45 1.356-1.026 1.428h-6.61zM68.458 7.946h-9.82v2.594h7.1l-8.824 11.038h2.113v.024h10.98V19.01h-7.632L71.22 7.945M47.473 8.137h-1.375L39.96 21.53h2.4l1.31-2.854h7.604l1.308 2.854h2.422L48.848 8.137h-1.375zm-2.67 8.064l2.67-5.824L50.14 16.2h-5.336zM83.318 7.946h-9.8v2.594h7.067l-8.792 11.038h2.115v.024h10.98V19.01h-7.64l8.81-11.064" stroke="none" fill="#7e8792" stroke-width="1px"></path>
            </g>
                            </svg>