<svg xmlns="http://www.w3.org/2000/svg" width="56" height="45" viewBox="0 0 55.473 44.193">
                            <g stroke="none" fill="#000000" stroke-width="1px">
                <g opacity=".3" fill="#000000" stroke="none" stroke-width="1px"><path d="M11.3 27.092l-3.82-1.186c-.45-.138-.925.112-1.064.56-.14.45.11.925.56 1.063l3.82 1.186c.084.026.17.038.252.038.363 0 .698-.234.81-.598.14-.448-.11-.925-.558-1.064zM3.66 24.72L1.1 23.928c-.45-.138-.924.113-1.063.56-.14.45.11.926.558 1.064l2.557.795c.084.026.17.038.252.038.363 0 .698-.234.812-.598.138-.448-.113-.925-.56-1.064zM48.398 25.715l-3.862-1.045c-.447-.123-.92.146-1.042.6-.123.453.146.92.6 1.042l3.86 1.044c.075.02.15.03.224.03.374 0 .717-.25.818-.63.123-.452-.144-.92-.598-1.04zM54.844 27.458l-2.584-.698c-.45-.124-.92.145-1.042.598-.123.453.146.92.6 1.043l2.582.7c.074.02.147.03.222.03.374 0 .717-.25.82-.63.123-.452-.146-.918-.598-1.042z" stroke="none" fill="#000000" stroke-width="1px"></path></g><path fill="#000000" d="M44.636 26.187l-10.69-2.91c-.164.297-.36.58-.62.827-.647.613-1.492.95-2.383.95-.692 0-1.366-.213-1.934-.596l-5.374 4.66c.81 1.36.61 3.146-.584 4.277-.646.613-1.49.95-2.382.95-.943 0-1.858-.39-2.508-1.075-.64-.673-.948-1.537-.944-2.4l-5.836-1.775v11.248c0 1.185.964 2.15 2.15 2.15h28.955c1.186 0 2.15-.966 2.15-2.15V26.187z" stroke="none" stroke-width="1px"></path><path fill="#000000" d="M33.218 10.023V1.7H13.532c-1.186 0-2.15.965-2.15 2.15v23.47l6.27 1.908c.168-.305.37-.596.634-.848 1.095-1.038 2.835-1.168 4.125-.447l5.476-4.75c-.268-.513-.416-1.08-.4-1.676.022-.923.404-1.783 1.075-2.42 1.328-1.263 3.63-1.203 4.892.126.645.68.954 1.554.944 2.423l10.24 2.79V13.374H36.57c-1.848 0-3.35-1.503-3.35-3.35z" stroke="none" stroke-width="1px"></path><path fill="#000000" d="M43.466 11.673l-8.55-8.74v7.09c0 .91.74 1.65 1.65 1.65h6.9z" stroke="none" stroke-width="1px"></path><path fill="#000000" d="M46.325 12.472c-.005-.078-.02-.152-.045-.225-.01-.026-.016-.053-.027-.078-.04-.087-.09-.17-.16-.24l-.003-.004-.006-.005L34.674.256 34.67.252c-.006-.006-.014-.01-.02-.015-.066-.064-.143-.113-.224-.15-.026-.014-.054-.02-.082-.03C34.27.03 34.197.014 34.12.01c-.018 0-.034-.01-.053-.01H13.532c-2.123 0-3.85 1.727-3.85 3.85v36.493c0 2.123 1.727 3.85 3.85 3.85h28.955c2.123 0 3.85-1.727 3.85-3.85v-27.82c0-.018-.01-.033-.012-.05zm-3.84 30.02H13.533c-1.186 0-2.15-.964-2.15-2.148v-11.25l5.836 1.777c-.004.863.305 1.728.944 2.4.65.685 1.565 1.076 2.508 1.076.89 0 1.736-.338 2.382-.95 1.193-1.133 1.393-2.92.584-4.277l5.373-4.662c.566.383 1.24.597 1.933.597.89 0 1.735-.338 2.382-.95.26-.247.457-.53.622-.828l10.69 2.91v14.156c0 1.185-.965 2.15-2.15 2.15zm-23.028-12.88c.33-.31.76-.482 1.212-.482.486 0 .94.194 1.275.547.668.704.64 1.82-.063 2.488-.683.646-1.842.617-2.487-.064-.668-.703-.64-1.818.062-2.487zm9.726-8.06c.013-.47.206-.908.55-1.232.326-.312.757-.483 1.21-.483.486 0 .94.194 1.274.547.668.704.64 1.82-.063 2.487-.684.648-1.84.62-2.487-.062-.325-.34-.496-.787-.484-1.257zm15.453 2.874l-10.24-2.79c.01-.87-.3-1.744-.945-2.423-1.26-1.33-3.562-1.39-4.89-.125-.67.636-1.053 1.496-1.075 2.42-.016.594.133 1.162.4 1.676l-5.475 4.75c-1.29-.722-3.03-.592-4.125.446-.265.252-.465.543-.633.848l-6.27-1.91V3.85c0-1.185.963-2.15 2.15-2.15h19.685v8.324c0 1.847 1.502 3.35 3.35 3.35h8.068v11.052zm-9.72-14.403V2.935l8.55 8.74h-6.9c-.91-.002-1.65-.74-1.65-1.652z" stroke="none" stroke-width="1px"></path><path fill="#000000" d="M21.88 32.165c.704-.668.732-1.784.064-2.488-.336-.353-.79-.547-1.276-.547-.453 0-.883.172-1.212.483-.702.67-.73 1.784-.062 2.487.646.682 1.805.71 2.487.065zM32.154 22.872c.703-.668.73-1.783.063-2.487-.335-.353-.788-.547-1.274-.547-.453 0-.884.17-1.21.483-.344.325-.537.762-.55 1.232-.012.47.16.916.484 1.257.646.68 1.804.71 2.487.062z" stroke="none" stroke-width="1px"></path>
            </g>
                        </svg>