<svg xmlns="http://www.w3.org/2000/svg" width="139" height="36" viewBox="0 0 139 34.795">
                                <g stroke="none" fill="#7e8792" stroke-width="1px">
                <path d="M41.67 21.774h-3.715l.02-3.897h3.763v-1.795h-3.742l.02-3.658h3.694l.165 1.843h1.93l-.117-3.638h-9.79v1.794h1.55l-.068 9.35H33.897v1.788h9.866l.24-3.87H41.91M2.938 6.747H6.24c.193 0 .344-.15.344-.34 0 0-.04-2.8-.04-3.583v-.008c0-.64.136-1.197.37-1.666l.11-.21c-.014 0-.027.006-.04.02L.57 7.256c-.014.014-.02.02-.02.035.13-.067.315-.156.335-.163.564-.244 1.243-.38 2.053-.38zM54.02 12.43h1.573L52.4 21.21h-.048l-3.22-8.78h1.312v-1.794H44.87v1.795h1.31l4.67 11.14h2.67l4.648-11.14h1.236v-1.794H54.02" stroke="none" fill="#7e8792" stroke-width="1px"></path><path d="M26.763 3.714c-.81-.292-2.465-.592-4.538-.836-1.67-.198-3.625-.177-4.813-.144-.144-.965-.824-1.842-1.586-2.148C13.794-.224 10.65-.026 9.84.19 9.2.37 8.485.737 8.094 1.294c-.268.374-.44.857-.44 1.523 0 .38.015 1.27.022 2.067.007.795.02 1.51.02 1.516 0 .706-.583 1.284-1.297 1.284H3.096c-.707 0-1.243.116-1.655.3-.41.183-.7.435-.926.727C.074 9.297 0 10.025 0 10.76c0 0 .007.605.15 1.768.125.905 1.113 7.215 2.054 9.132.364.748.604 1.054 1.325 1.387 1.592.673 5.23 1.428 6.94 1.646 1.703.218 2.774.667 3.412-.652 0 0 .13-.326.302-.81.556-1.658.632-3.133.632-4.2 0-.11.158-.117.158 0 0 .753-.144 3.412 1.888 4.126.803.28 2.465.53 4.154.728 1.53.177 2.636.768 2.636 4.65 0 2.36-.5 2.687-3.117 2.687-2.122 0-2.932.054-2.932-1.62 0-1.352 1.346-1.21 2.348-1.21.447 0 .125-.325.125-1.162 0-.83.522-1.305.027-1.32-3.453-.094-5.486-.006-5.486 4.278 0 3.883 1.504 4.61 6.406 4.61 3.845 0 5.197-.123 6.79-5.004.316-.966 1.07-3.903 1.53-8.84.278-3.095-.286-12.513-.732-14.892-.26-1.387-1.098-2.074-1.847-2.346zM21.91 16.47c-.475-.014-.935.013-1.36.082.116-.96.52-2.135 1.935-2.088 1.565.055 1.785 1.523 1.792 2.516-.658-.292-1.482-.476-2.368-.51zM108.014 10.377c-4.023 0-6.48 2.83-6.48 6.896 0 3.61 1.977 6.562 6.48 6.562 4.023 0 6.48-2.835 6.48-6.915.002-3.592-1.976-6.543-6.48-6.543zm0 11.376c-2.19 0-3.81-1.68-3.81-4.577 0-2.665 1.38-4.72 3.81-4.72 2.19 0 3.81 1.674 3.81 4.625 0 2.62-1.38 4.673-3.81 4.673zM115.594 10.63l-.144 3.637h1.977l.096-1.843h2.623l-.068 9.35H118.6l.008 1.795h5.623v-1.796h-1.55l.068-9.35h2.623l.097 1.843h1.978l-.144-3.638M136.906 19.693l-.24 2.08h-3.715l.03-3.896h3.76v-1.795H133l.02-3.658h3.694l.164 1.843h1.93l-.117-3.638h-9.797v1.794h1.552l-.075 9.35h-1.477v1.788h9.867l.24-3.87M95.477 12.43h1.552l-.077 6.957h-.048L90.28 10.63h-3.86v1.794h1.553l-.07 9.35H86.43v1.795h5.122v-1.796h-1.552l.075-7.412h.05l6.974 9.207h1.957l.07-11.14h1.475v-1.794h-5.123M68.453 21.774H64.74l.026-3.897h3.763v-1.795h-3.743l.02-3.658H68.5l.166 1.843h1.93l-.117-3.638h-9.792v1.794h1.544l-.068 9.35h-1.476v1.788h9.86l.24-3.87h-2.095M82.933 20.21c-1.215-2.075-1.524-2.38-2.74-2.714v-.048c2.334-.584 3.076-1.93 3.076-3.42 0-1.68-.976-3.4-4.004-3.4h-6.028v1.795h1.552l-.07 9.35h-1.475v1.795h5.623v-1.795h-1.552l.027-3.707h.522c.954 0 1.236.164 2.48 2.57 1.38 2.714 1.592 2.925 3.356 2.925h1.333V21.7c-.172.02-.357.068-.55.068-.45 0-.74-.21-1.55-1.557zm-4.538-3.938h-1.023l.02-3.848h1.573c1.188 0 1.785.707 1.785 1.89 0 1.204-.948 1.958-2.355 1.958z" stroke="none" fill="#7e8792" stroke-width="1px"></path>
            </g>
                            </svg>