<svg xmlns="http://www.w3.org/2000/svg" width="15" height="15" viewBox="0 0 15 15">
                        <g stroke="none" fill="#7f8c97" stroke-width="1px">
                <path d="M8.837.125h-.01C8.394.046 7.952 0 7.5 0 3.358 0 0 3.358 0 7.5c0 2.02.803 3.853 2.104 5.2.005.008.005.017.01.023.013.017.03.024.045.04C3.52 14.142 5.41 15 7.5 15c2.082 0 3.965-.85 5.324-2.22.02-.018.047-.03.065-.053.01-.013.01-.028.02-.042C14.202 11.338 15 9.515 15 7.5 15 3.815 12.34.757 8.837.125zM5.22 1.295c-.38.568-.7 1.178-.96 1.82-.377-.172-.74-.375-1.088-.61.598-.52 1.29-.93 2.047-1.21zM2.535 3.14c.452.317.927.59 1.423.812-.31.984-.487 2.03-.522 3.11H.904c.1-1.5.698-2.86 1.632-3.922zM.904 7.94h2.54c.043 1.068.23 2.11.55 3.092-.51.225-.995.505-1.458.83C1.602 10.8 1.004 9.44.904 7.942zm2.266 4.553c.36-.242.738-.453 1.13-.63.275.667.612 1.295 1.008 1.875-.792-.28-1.516-.705-2.138-1.245zm3.88 1.602c-.128-.01-.257-.02-.384-.036-.64-.727-1.155-1.58-1.544-2.513.62-.198 1.266-.316 1.93-.353v2.9zm0-3.782c-.767.04-1.516.174-2.232.406-.283-.884-.45-1.82-.493-2.78H7.05v2.373zm0-3.254H4.32c.035-.96.195-1.898.47-2.785.726.238 1.484.374 2.26.413v2.37zm0-3.254c-.674-.038-1.332-.16-1.963-.364.375-.92.872-1.764 1.485-2.487.158-.022.318-.04.48-.05v2.9zm7.045 3.253h-2.413c-.036-1.1-.218-2.163-.537-3.16.458-.214.898-.467 1.32-.76.933 1.06 1.53 2.422 1.63 3.92zm-2.267-4.555c-.317.212-.646.4-.987.562-.248-.604-.55-1.177-.9-1.713.695.277 1.33.668 1.888 1.15zM7.933.905c.213.013.424.037.63.07.6.71 1.086 1.535 1.455 2.43-.668.23-1.368.362-2.085.402V.904zm0 3.783c.82-.04 1.622-.19 2.384-.453.283.9.447 1.852.483 2.824H7.933V4.687zm0 3.253h2.862c-.043.972-.214 1.918-.502 2.812-.755-.256-1.546-.4-2.36-.44v-2.37zm0 6.156v-2.902c.706.04 1.395.166 2.052.387-.385.912-.89 1.746-1.514 2.46-.176.024-.355.044-.537.056zm1.917-.417c.37-.55.687-1.142.95-1.768.355.167.7.36 1.03.58-.58.505-1.25.908-1.98 1.187zm2.614-1.818c-.43-.302-.882-.563-1.353-.78.33-.997.522-2.056.567-3.14h2.417c-.098 1.497-.696 2.857-1.63 3.92z" stroke="none" fill="#7f8c97" stroke-width="1px"></path>
            </g>
                    </svg>