<svg xmlns="http://www.w3.org/2000/svg" width="79" height="35" viewBox="0 0 78.881 34.391">
                                <g stroke="none" fill="#7e8792" stroke-width="1px">
                <path d="M66.942 22.148c-28.716-2.28-52.4 4.78-57.807 7.354-2.957 1.407-3.196 3.104-2.798 4.05.34.814 1.74 1.216 3.32.364 11.43-6.152 34.494-11.134 57.24-9.74 1.114.07 1.633-1.902.045-2.028zM8.157 12.537c1.492.016-1.135 7.7-.853 11.042.285 3.37 4.043 2.4 3.804.458-.406-3.298 1.808-13.635 4.054-13.635 1.576 0-1.745 7.126-1.092 11.69.432 3.018 4.356 1.97 3.958.18-1.32-5.923 2.768-11.617 2.31-15.65-.2-1.766-1.27-2.63-2.34-2.637-3.746-.03-6.64 7.595-6.64 7.595s.3-4.332-2.61-4.49C4.29 6.843-.122 17.915.003 27.8c.04 3.155 3.995 2.618 3.787.103-.387-4.676 2.24-15.39 4.367-15.366zM74.118 13.467c-1.257 1.425-2.982 2.44-3.574 1.925-.593-.516.015-2.096.015-2.096 2.817-1.758 8.32-6.503 8.32-10.146 0-3.37-2.897-4.39-6.128-1.305-2.205 2.104-4.225 5.972-5.378 9.88-1.64 1.636-4.173 3.705-6.504 3.705-1.196 0-1.557-.854-1.44-1.99 2.017-.114 7.432-1.664 7.432-6.23-.082-2-1.625-2.744-3.007-2.744-2.45 0-5.638 2.555-7.194 6.15-.408-.07-.826-.213-1.208-.472.496-1.105.82-2.08.913-2.752.25-1.83-.476-3.096-1.98-3.03-.967.044-2.147.904-2.436 3.012-.198 1.437.544 2.942.544 2.942-.7 2.168-3.38 4.835-4.327 4.807-.868-.026.18-3.898 1.085-6.72.57-.604 1.046-1.273 1.195-1.86.24-.942-.123-1.364-.416-1.576-.682-.495-2.562-.332-3.608 1.525-.27.478-.636 1.242-1.007 2.176-.778.92-1.913 2.184-2.288 1.963-.57-.334 1.13-2.67.946-4.007-.166-1.216-1.126-1.827-2.17-1.685-1.47.202-3.463 3.275-3.463 3.275s.4-.918.372-1.726c-.04-1.112-2.212-1.658-3.2.442-.363.768-.985 3.415-1.546 6.037-.5.914-2.11 3.67-3.434 3.813-1.084.117.233-4.9.387-5.15.576-.933 1.373-2.9 1.275-3.798-.126-1.168-.886-1.422-1.657-1.285-1.09.195-1.655 1.336-1.655 1.336s-.675-.935-2.056-.786c-4.532.488-7.478 8.388-7.104 12.278.193 2.013 1.248 3.256 2.885 3.07 2.033-.234 3.612-3.228 3.612-3.228s.466 2.375 2.58 2.052c1.44-.22 2.876-1.45 4.06-2.806-.047.256-.08.438-.092.515-.3 1.96 2.99 1.822 3.214.19 1.04-7.543 3.587-10.72 4.328-10.72.612 0-1.648 3.584-.318 5.04 1.067 1.167 2.765.196 4.154-1.02-.21.98-.356 1.993-.378 2.98-.05 2.167.74 3.88 2.82 3.78 2.778-.132 5.665-3.508 7.56-6.757.428.3.967.554 1.642.685-.14.784-.198 1.595-.152 2.422.142 2.514 1.875 3.43 3.834 3.386 2.34-.053 5.015-1.842 6.975-3.467-.013.093-.027.187-.038.28-.143 1.147.033 3.415 1.724 3.57 2.017.183 5.43-1.843 7.112-4.022 1.248-1.614-.227-2.996-1.228-1.86zm1.79-10.398c.185 0 .276.138.276.42 0 2.152-5.307 6.72-5.307 6.72s3.486-7.14 5.032-7.14zM63.125 7.657c.432 0 .677.25.677.685 0 1.142-1.6 2.056-3.395 2.19.81-1.554 1.944-2.875 2.72-2.875zM27.558 10.97c-.167 1.31-2.388 7.028-3.594 7.062-1.546.043.766-8.19 3.25-8.134.44.01.432.386.344 1.072z" stroke="none" fill="#7e8792" stroke-width="1px"></path>
            </g>
                            </svg>