<svg xmlns="http://www.w3.org/2000/svg" viewBox="0 0 121 22">
                            <g stroke="none" fill="#000000" stroke-width="1px">
                <path d="M32.563 6.787c-4.257 0-7.273 3.245-7.273 7.592 0 4.375 3.016 7.62 7.273 7.62s7.273-3.245 7.273-7.62c0-4.348-3.016-7.593-7.273-7.593zm0 12.713c-2.365 0-4.435-1.786-4.435-5.12 0-3.305 2.07-5.09 4.435-5.09 2.365 0 4.435 1.785 4.435 5.09 0 3.334-2.07 5.12-4.435 5.12zM15.994 6.818c-1.803 0-3.636.655-4.76 2.71-.768-1.848-2.483-2.71-4.257-2.71-1.656 0-3.43.744-4.316 2.322V7.234H0v14.32h2.75V12.92c0-2.143 1.33-3.632 3.31-3.632 2.13 0 3.016 1.43 3.016 3.275v8.99h2.78V12.89c0-2.054 1.33-3.603 3.28-3.603 2.1 0 3.015 1.4 3.015 3.275v8.99h2.75v-9.288c.002-3.75-2.422-5.446-4.906-5.446zM57.174 0h-2.75v9.26c-.473-1.162-1.833-2.413-4.346-2.413-4.02 0-6.74 3.454-6.74 7.502 0 4.256 2.572 7.59 6.74 7.59 2.218 0 3.725-1.19 4.405-2.56v.238c0 .864.09 1.608.148 1.935h2.69c-.03-.238-.147-1.28-.147-2.65V0zm-6.83 19.47c-2.66 0-4.17-2.173-4.17-5.12 0-2.948 1.657-5.03 4.2-5.03 2.542 0 4.08 2.023 4.08 4.97 0 2.947-1.567 5.18-4.11 5.18zM74.895 7.234h-2.78v8.634c0 2.173-1.123 3.662-3.37 3.662-2.334 0-3.22-1.727-3.22-3.692V7.234h-2.78v9.02c0 3.245 2.01 5.746 5.322 5.746 1.656 0 3.43-.685 4.198-2.173 0 .595.06 1.4.118 1.726h2.66c-.058-.506-.147-1.518-.147-2.65V7.233zM80.762 0h2.78v21.553h-2.78zM117.122 6.73c.11-.387.423-.665.797-.894l1.52-.943c.943-.58 1.51-1.413 1.51-2.428 0-1.34-1.026-2.465-2.754-2.465-1.776 0-2.79 1.22-2.79 2.573 0 .157.023.34.035.448l1.403.097c-.012-.133-.036-.278-.036-.4 0-.81.447-1.45 1.365-1.45.882 0 1.317.58 1.317 1.22 0 .57-.303 1.04-1.004 1.475l-1.293.81c-1.365.845-1.836 1.897-1.86 3.237H121V6.73h-3.878zM111.202 0c-1.172 0-1.993.52-2.5 1.28-.533.798-.702 1.777-.702 2.816 0 1.04.17 2.017.7 2.815.51.76 1.33 1.282 2.502 1.282 1.172 0 1.98-.52 2.49-1.28.53-.8.7-1.777.7-2.816 0-1.04-.17-2.017-.7-2.815C113.18.52 112.373 0 111.2 0zm1.208 6.33c-.278.35-.64.58-1.208.58s-.942-.228-1.208-.58c-.375-.482-.556-1.243-.556-2.235 0-.99.17-1.752.556-2.235.266-.35.64-.58 1.208-.58s.93.23 1.208.58c.375.483.544 1.245.544 2.235 0 .992-.17 1.753-.544 2.236zM95.054 6.787c-3.577 0-6.8 3.067-6.8 7.562 0 4.852 3.34 7.65 7.155 7.65 3.31 0 5.586-1.995 6.385-4.525l-2.395-.833c-.532 1.608-1.685 2.888-3.99 2.888-2.396 0-4.23-1.786-4.288-4.347h10.702c.03-.178.06-.536.06-.893 0-4.466-2.454-7.503-6.83-7.503zM91.21 12.92c.12-1.846 1.538-3.662 3.874-3.662 2.513 0 3.843 1.607 3.902 3.662H91.21z" stroke="none" fill="#000000" stroke-width="1px"></path>
            </g>
                        </svg>