<svg xmlns="http://www.w3.org/2000/svg" width="156" height="30" viewBox="0 0 155.994 30">
                                <g stroke="none" fill="#7e8792" stroke-width="1px">
                <path d="M66.632 9.793c-.855.018-1.696.11-2.49.31-2.46.52-5.372 2.347-5.917 5.13-.203 1.54.575 2.914 1.868 3.73 1.744 1.025 3.83 1.32 5.916 1.245 1.495-.157 3.052-.547 4.358-1.244 1.34-.755 2.43-1.816 2.958-3.42.454-.91.408-2.25-.156-3.11-1.647-2.03-4.092-2.682-6.538-2.64zm1.4 6.84c-1.007.838-2.614 1.226-4.046.622-.457-.14-1.003-.635-1.09-1.244-.085-1.25.586-2.458 1.712-3.107.575-.31 1.293-.48 2.024-.467.69 0 1.392.17 1.868.467.35.262.6.572.778.932.167 1.033-.317 2.04-1.245 2.797zM153.66 9.948h-5.138l-6.54 10.104h3.426l1.09-1.865h4.826c-.026.062-.01.093 0 .156l.467 1.71h4.205L153.66 9.947zm-5.45 5.752l1.712-2.487.623 2.487h-2.335zM15.1 0C6.733 0 0 6.722 0 15.078 0 23.293 6.732 30 15.1 30c8.214 0 14.947-6.8 14.947-14.922C30.047 6.722 23.314 0 15.1 0zm9.342 22.383s-.3-.977-.623-1.865c-1.27-4.275-2.94-5.95-5.45-4.974-.6.156-1.49.962-2.024 1.71-.387.772-1.042 1.966-1.246 2.953-.218-.987-.875-2.18-1.246-2.953-.55-.748-1.425-1.554-2.023-1.71-2.508-.976-4.194.7-5.448 4.974-.323.888-.65 1.865-.623 1.865h-.934l5.76-19.12L15.1 18.187l4.516-14.922 5.76 19.12h-.934zM53.088 9.948l-3.58 4.352-1.09-4.352h-5.294l-2.802 10.104h3.27s1.47-5.254 1.557-5.285c-.012-.084-.002-.133.005-.156.066-.038.113.002.15.002l1.245 5.44h2.18l4.358-5.285-1.4 5.285h4.047l2.802-10.104h-5.45zM87.183 9.948H74.728l-.934 3.264h4.048c.15-.046.212.047.156.156l-1.712 6.684h3.892l2.024-6.84v-.155h4.204l.777-3.11zM124.08 9.793c-.862.018-1.703.11-2.492.31-2.465.52-5.376 2.347-5.916 5.13-.192 1.54.57 2.914 1.868 3.73 1.74 1.025 3.81 1.32 5.916 1.245 1.505-.157 3.046-.547 4.36-1.244 1.333-.755 2.423-1.816 2.957-3.42.462-.91.4-2.25-.156-3.11-1.64-2.03-4.098-2.682-6.538-2.64zm1.4 6.84c-1.013.838-2.604 1.226-4.048.622-.46-.14-1.006-.635-1.09-1.244-.072-1.25.6-2.458 1.712-3.107.587-.31 1.305-.48 2.024-.467.686 0 1.403.17 1.868.467.362.262.61.572.778.932.178 1.033-.32 2.04-1.244 2.797zM135.91 16.943l1.558-6.995h-4.048l-2.335 10.104h10.12l.622-2.954h-5.916c-.006.043-.053-.035 0-.155zM115.05 10.88c-.475-.574-1.28-.932-2.024-.932H103.53c-.834 3.326-1.7 6.746-2.49 10.104h3.735l.778-2.954h3.27c.487-.03.704.343.778.778l-.155 1.243c-.058.232-.027.403 0 .466.127.28.313.42.467.466h4.515c-.223-.218-.518-.544-.467-.933.01-.716.29-1.51.156-2.333-.16-.544-.764-.9-1.246-1.088-.09-.08 0-.126 0-.157 1.07-.404 2.2-1.15 2.646-2.332.298-.712.206-1.77-.466-2.33zm-3.893 2.954c-.25.3-.51.42-.934.466h-3.892l.468-1.71h4.047c.232.016.48.18.623.467.073.24-.035.568-.31.777zM100.727 12.435c-1.64-2.03-4.1-2.683-6.54-2.642-.86.018-1.685.11-2.49.31-2.465.52-5.36 2.347-5.916 5.13-.19 1.54.572 2.914 1.87 3.73 1.738 1.025 3.824 1.32 5.915 1.245 1.49-.157 3.046-.547 4.36-1.244 1.333-.755 2.423-1.816 2.957-3.42.462-.91.4-2.252-.155-3.11zm-4.982 4.197c-1.02.84-2.613 1.227-4.047.623-.47-.14-1-.635-1.09-1.244-.098-1.25.573-2.458 1.712-3.107.562-.31 1.28-.48 2.024-.467.676 0 1.394.17 1.868.467.337.262.603.572.778.932.168 1.033-.332 2.04-1.245 2.797z" stroke="none" fill="#7e8792" stroke-width="1px"></path>
            </g>
                            </svg>