<svg xmlns="http://www.w3.org/2000/svg" width="96" height="26" viewBox="0 0 95.997 26">
                                <g stroke="none" fill="#7e8792" stroke-width="1px">
                <path d="M17.708 20.262v3.774c3.25-.285 6.51-.517 9.786-.71v-3.777c-1.89.105-3.78.233-5.67.376v-6.022h4.933V10.13h-4.932V3.774h5.683V0h-9.8v20.262zM9.346 14.848L4.104 0H0v26h.026c1.294-.168 2.602-.35 3.91-.504V11.152l4.853 13.763c1.488-.168 2.99-.323 4.49-.48V0H9.347v14.848zM31.468 3.773H35.3V22.95c1.372-.052 2.73-.09 4.104-.13V3.774h3.832V0H31.468v3.773zM65.163 0h-4.116v22.963c3.275.116 6.537.284 9.8.504v-3.76c-1.904-.142-3.793-.246-5.684-.336V0zM47.235 22.718c.272.013.53 0 .803 0 1.113 0 2.213.013 3.313.013v-8.838h4.933v-3.76H51.35v-6.36h5.67V0h-9.785v22.718zM95.997 0h-4.155l-.04.064-2.653 6.54-2.33-6.59h-4.104l4.233 12.003-4.998 12.34c1.333.13 2.68.272 4.013.415l2.938-7.263 2.796 7.92c1.436.182 2.873.363 4.296.57L91.09 12.094 95.997 0zM74.742 23.726c1.372.116 2.744.22 4.104.35V0h-4.104v23.726z" stroke="none" fill="#7e8792" stroke-width="1px"></path>
            </g>
                            </svg>