<svg xmlns="http://www.w3.org/2000/svg" width="52" height="48" viewBox="0 0 51.999 48">
                            <g stroke="none" fill="#000000" stroke-width="1px">
                <g opacity=".3" fill="#000000" stroke="none" stroke-width="1px"><path d="M.842 32.066c.465 0 .843-.386.843-.86v-3.98c0-.474-.378-.858-.843-.858-.464 0-.84.384-.842.855v3.986c0 .472.378.856.842.856zM.842 24.103c.465 0 .843-.385.843-.858v-3.98c0-.475-.378-.86-.843-.86-.464 0-.84.384-.842.857v3.986c0 .47.378.855.842.855zM1.686 37.62v-2.432c0-.475-.378-.86-.843-.86-.464 0-.84.385-.842.857v2.44c0 .617.104 1.223.307 1.8.123.354.447.57.794.57.095 0 .19-.014.284-.05.438-.158.667-.65.51-1.096-.14-.393-.208-.808-.208-1.23zM15.458 41.283H11.55c-.464 0-.842.385-.842.857 0 .475.378.86.843.86h3.908c.465 0 .842-.386.842-.86 0-.472-.377-.857-.842-.857zM7.643 41.283h-2.36c-.424 0-.837-.074-1.23-.22-.436-.16-.92.067-1.078.515-.16.445.066.938.504 1.1.575.214 1.182.322 1.802.322h2.36c.467 0 .844-.385.844-.86 0-.472-.378-.857-.843-.857zM6.1 13.854c-.003-.474-.362-.85-.85-.854-1.578.01-3.058.73-4.06 1.976-.293.367-.24.908.12 1.208.156.13.345.195.533.195.243 0 .486-.11.652-.316.682-.85 1.69-1.34 2.765-1.347.466-.003.842-.39.84-.863zM46.72 41.283H42.81c-.465 0-.843.385-.843.857 0 .475.377.86.842.86h3.932l.027-.86V43c.466 0 .818-.385.818-.86 0-.473-.403-.857-.87-.857zM31.09 41.283h-3.91c-.464 0-.84.385-.84.857 0 .475.376.86.84.86h3.91c.464 0 .842-.386.842-.86 0-.472-.378-.857-.843-.857zM45.175 13.86c0-.475-.378-.86-.844-.86h-3.905c-.465 0-.844.385-.844.86 0 .472.38.857.845.857h3.906c.467 0 .845-.385.845-.858zM50.892 17.695c.095 0 .192-.016.288-.053.437-.16.663-.653.504-1.1-.54-1.513-1.703-2.69-3.19-3.232-.438-.158-.922.075-1.078.52-.155.448.073.94.512 1.098 1.014.368 1.806 1.17 2.173 2.2.125.35.447.567.792.567zM23.273 41.283h-3.907c-.466 0-.843.385-.843.857 0 .475.377.86.843.86h3.907c.465 0 .843-.386.843-.86 0-.472-.378-.857-.843-.857zM51.157 35.853c-.465 0-.843.385-.843.858v.91c0 .848-.276 1.643-.797 2.3-.293.368-.237.91.125 1.207.156.13.343.19.53.19.243 0 .487-.107.654-.317.757-.952 1.172-2.153 1.172-3.38v-.91c0-.473-.376-.857-.84-.857zM13.914 13.86c0-.475-.378-.86-.843-.86H9.165c-.466 0-.844.385-.844.86 0 .472.378.857.844.857h3.907c.466 0 .844-.385.844-.858zM51.157 27.89c-.465 0-.843.386-.843.858v3.982c0 .474.378.858.843.858s.842-.385.842-.858v-3.982c0-.473-.378-.858-.843-.858zM21.73 13.86c0-.475-.378-.86-.843-.86H16.98c-.466 0-.844.385-.844.86 0 .472.378.857.843.857h3.907c.465 0 .842-.385.842-.858zM51.157 19.927c-.465 0-.843.385-.843.86v3.98c0 .474.378.858.843.858s.842-.385.842-.858v-3.98c0-.475-.378-.86-.843-.86zM29.545 13.86c0-.475-.38-.86-.844-.86h-3.907c-.465 0-.843.385-.843.86 0 .472.378.857.843.857H28.7c.466 0 .845-.385.845-.858z" stroke="none" fill="#000000" stroke-width="1px"></path></g><g fill="#000000" stroke="none" stroke-width="1px"><path d="M17.814 8.674c-.185-.284-.483-.446-.814-.446-.333 0-.63.162-.815.446l-2.83 4.324h7.287l-2.828-4.324zM12.638 42.813v.747c0 1.52 1.204 2.758 2.685 2.758h3.354c1.48 0 2.684-1.237 2.684-2.758v-.747H12.64z" stroke="none" fill="#000000" stroke-width="1px"></path></g><path fill="#000000" d="M38.728 1.69h-6.455c-.89 0-1.612.736-1.612 1.64V6.3h2.37c.458 0 .83.378.83.845 0 .467-.372.846-.83.846h-2.37v5.27h5.3c.458 0 .83.376.83.844 0 .466-.372.845-.83.845h-5.3v5.27h2.37c.457 0 .83.377.83.844s-.373.845-.83.845h-2.37v5.27h5.3c.458 0 .83.377.83.846 0 .466-.372.845-.83.845h-5.3v5.27h2.37c.457 0 .83.38.83.847 0 .466-.373.845-.83.845h-2.37v5.27h5.3c.458 0 .83.378.83.846 0 .467-.372.846-.83.846h-5.3v1.877c0 .906.723 1.642 1.612 1.642h5.903c1.192 0 2.163-.987 2.163-2.202V3.33c0-.904-.722-1.64-1.61-1.64zM12.638 43.56c0 1.52 1.204 2.758 2.685 2.758h3.354c1.48 0 2.684-1.237 2.684-2.758v-.747H12.64v.747zM17.814 8.674c-.185-.284-.483-.446-.814-.446-.333 0-.63.162-.815.446l-2.83 4.324h7.287l-2.828-4.324z" stroke="none" stroke-width="1px"></path><path fill="#000000" d="M38.728 1.69h-6.455c-.89 0-1.612.736-1.612 1.64V6.3h2.37c.458 0 .83.378.83.845 0 .467-.372.846-.83.846h-2.37v5.27h5.3c.458 0 .83.376.83.844 0 .466-.372.845-.83.845h-5.3v5.27h2.37c.457 0 .83.377.83.844s-.373.845-.83.845h-2.37v5.27h5.3c.458 0 .83.377.83.846 0 .466-.372.845-.83.845h-5.3v5.27h2.37c.457 0 .83.38.83.847 0 .466-.373.845-.83.845h-2.37v5.27h5.3c.458 0 .83.378.83.846 0 .467-.372.846-.83.846h-5.3v1.877c0 .906.723 1.642 1.612 1.642h5.903c1.192 0 2.163-.987 2.163-2.202V3.33c0-.904-.722-1.64-1.61-1.64zM17.814 8.674c-.185-.284-.483-.446-.814-.446-.333 0-.63.162-.815.446l-2.83 4.324h7.287l-2.828-4.324zM12.638 43.56c0 1.52 1.204 2.758 2.685 2.758h3.354c1.48 0 2.684-1.237 2.684-2.758v-.747H12.64v.747z" stroke="none" stroke-width="1px"></path><path fill="#000000" d="M38.728 1.69h-6.455c-.89 0-1.612.736-1.612 1.64V6.3h2.37c.458 0 .83.378.83.845 0 .467-.372.846-.83.846h-2.37v5.27h5.3c.458 0 .83.376.83.844 0 .466-.372.845-.83.845h-5.3v5.27h2.37c.457 0 .83.377.83.844s-.373.845-.83.845h-2.37v5.27h5.3c.458 0 .83.377.83.846 0 .466-.372.845-.83.845h-5.3v5.27h2.37c.457 0 .83.38.83.847 0 .466-.373.845-.83.845h-2.37v5.27h5.3c.458 0 .83.378.83.846 0 .467-.372.846-.83.846h-5.3v1.877c0 .906.723 1.642 1.612 1.642h5.903c1.192 0 2.163-.987 2.163-2.202V3.33c0-.904-.722-1.64-1.61-1.64zM12.638 43.56c0 1.52 1.204 2.758 2.685 2.758h3.354c1.48 0 2.684-1.237 2.684-2.758v-.747H12.64v.747zM17.814 8.674c-.185-.284-.483-.446-.814-.446-.333 0-.63.162-.815.446l-2.83 4.324h7.287l-2.828-4.324z" stroke="none" stroke-width="1px"></path><path fill="#000000" d="M38.728 1.69h-6.455c-.89 0-1.612.736-1.612 1.64V6.3h2.37c.458 0 .83.378.83.845 0 .467-.372.846-.83.846h-2.37v5.27h5.3c.458 0 .83.376.83.844 0 .466-.372.845-.83.845h-5.3v5.27h2.37c.457 0 .83.377.83.844s-.373.845-.83.845h-2.37v5.27h5.3c.458 0 .83.377.83.846 0 .466-.372.845-.83.845h-5.3v5.27h2.37c.457 0 .83.38.83.847 0 .466-.373.845-.83.845h-2.37v5.27h5.3c.458 0 .83.378.83.846 0 .467-.372.846-.83.846h-5.3v1.877c0 .906.723 1.642 1.612 1.642h5.903c1.192 0 2.163-.987 2.163-2.202V3.33c0-.904-.722-1.64-1.61-1.64z" stroke="none" stroke-width="1px"></path><path fill="#000000" d="M38.728 0h-6.455C30.47 0 29 1.494 29 3.33V44.67C29 46.505 30.47 48 32.272 48h5.903C40.285 48 42 46.253 42 44.106V3.33C42 1.495 40.53 0 38.728 0zm1.61 44.106c0 1.215-.97 2.202-2.162 2.202h-5.903c-.89 0-1.612-.735-1.612-1.64V42.79h5.3c.46 0 .83-.38.83-.846 0-.468-.37-.846-.83-.846h-5.3v-5.27h2.37c.457 0 .83-.38.83-.845 0-.468-.373-.846-.83-.846h-2.37v-5.27h5.3c.458 0 .83-.38.83-.845 0-.47-.372-.847-.83-.847h-5.3v-5.27h2.37c.457 0 .83-.378.83-.845s-.373-.845-.83-.845h-2.37v-5.27h5.3c.458 0 .83-.38.83-.845 0-.468-.372-.845-.83-.845h-5.3v-5.27h2.37c.457 0 .83-.38.83-.846 0-.468-.373-.846-.83-.846h-2.37V3.33c0-.904.723-1.64 1.612-1.64h6.455c.89 0 1.61.736 1.61 1.64v40.776z" stroke="none" stroke-width="1px"></path><path fill="#000000" d="M16.18 14.682h-3.52c-.01.096-.022.19-.022.288v26.16h3.543V14.682zM17.82 14.682V41.13h3.54V14.97c0-.097-.01-.192-.02-.288h-3.52z" stroke="none" stroke-width="1px"></path><path fill="#000000" d="M22.804 13.63c-.126-.42-.313-.824-.557-1.197l-3.073-4.698c-.328-.502-.81-.853-1.355-1.038V4.842C17.82 4.377 17.45 4 17 4c-.452 0-.82.377-.82.842v1.855c-.543.185-1.026.536-1.356 1.038l-3.072 4.698c-.492.753-.752 1.63-.752 2.537v28.59c0 2.448 1.938 4.44 4.323 4.44h3.354C21.06 48 23 46.008 23 43.56V14.97c0-.277-.032-.55-.08-.818-.03-.176-.066-.35-.116-.52zm-6.62-4.956c.186-.284.483-.446.816-.446.33 0 .63.162.814.446l2.828 4.324h-7.286l2.83-4.324zM12.64 14.97c0-.097.012-.192.02-.288h3.523V41.13H12.64V14.97zm8.723 28.59c0 1.52-1.203 2.758-2.683 2.758h-3.354c-1.48 0-2.685-1.237-2.685-2.758v-.747h8.723v.747zm0-2.43h-3.54V14.682h3.52c.01.096.02.19.02.288v26.16z" stroke="none" stroke-width="1px"></path>
            </g>
                        </svg>