<svg xmlns="http://www.w3.org/2000/svg" width="46" height="48" viewBox="0 0 47 48">
                            <g stroke="none" fill="#000000" stroke-width="1px">
                <path fill="#000000" d="M43.167.738H3.85c-1.657 0-3 1.343-3 3v10.957h45.317V3.738c0-1.657-1.343-3-3-3z" stroke="none" stroke-width="1px"></path><path fill="#000000" d="M43.15 1.785H3.85c-1.184 0-2.15.96-2.15 2.14V13.99H45.3V3.925c0-1.18-.964-2.14-2.15-2.14zM8.38 9.63c-1.057 0-1.913-.857-1.913-1.914s.856-1.914 1.913-1.914 1.914.857 1.914 1.914S9.436 9.63 8.378 9.63zm6 0c-1.057 0-1.913-.857-1.913-1.914s.856-1.914 1.913-1.914 1.914.857 1.914 1.914-.856 1.914-1.914 1.914zm6 0c-1.057 0-1.913-.857-1.913-1.914s.856-1.914 1.913-1.914 1.914.857 1.914 1.914-.856 1.914-1.914 1.914zM1.7 44.166c0 1.18.964 2.14 2.148 2.14H43.15c1.187 0 2.15-.96 2.15-2.14V15.682H1.7v28.484zm25.703-16.643c-.332-.332-.332-.87 0-1.202s.87-.33 1.202 0l4.666 4.666c.16.16.25.376.25.6 0 .228-.09.443-.25.603l-4.665 4.664c-.166.166-.384.25-.6.25-.22 0-.437-.084-.603-.25-.332-.332-.332-.87 0-1.202l4.064-4.064-4.063-4.065zM19.65 37.48l4.242-13.55c.142-.45.622-.698 1.065-.558.448.14.697.617.557 1.065l-4.24 13.55c-.115.364-.45.598-.812.598-.084 0-.17-.013-.254-.04-.447-.14-.696-.615-.557-1.065zm-7.764-6.494l4.665-4.665c.333-.33.87-.33 1.203 0s.332.87 0 1.203l-4.064 4.063 4.063 4.064c.332.332.332.87 0 1.202-.166.166-.383.25-.6.25-.22 0-.436-.084-.602-.25l-4.664-4.665c-.332-.33-.332-.87 0-1.2z" stroke="none" stroke-width="1px"></path><path fill="#000000" d="M43.15 0H3.85C1.726 0 0 1.72 0 3.834v40.332C0 46.28 1.726 48 3.848 48H43.15c2.123 0 3.85-1.72 3.85-3.834V3.834C47 1.72 45.273 0 43.15 0zm2.15 44.166c0 1.18-.964 2.14-2.15 2.14H3.85c-1.184 0-2.15-.96-2.15-2.14V15.682H45.3v28.484zm0-30.176H1.7V3.925c0-1.18.964-2.14 2.148-2.14H43.15c1.187 0 2.15.96 2.15 2.14V13.99z" stroke="none" stroke-width="1px"></path><path fill="#000000" d="M16.55 36.854c.167.166.384.25.602.25.218 0 .435-.084.6-.25.333-.332.333-.87 0-1.202l-4.063-4.064 4.063-4.063c.332-.332.332-.87 0-1.202s-.87-.332-1.202 0l-4.664 4.665c-.332.332-.332.87 0 1.202l4.665 4.664zM27.403 36.854c.166.166.383.25.602.25.217 0 .435-.084.6-.25l4.667-4.665c.16-.16.25-.376.25-.603 0-.225-.09-.44-.25-.6l-4.666-4.666c-.332-.33-.87-.33-1.202 0s-.332.87 0 1.203l4.064 4.063-4.064 4.064c-.333.333-.333.87 0 1.204zM20.208 38.546c.084.026.17.04.254.04.362 0 .697-.234.81-.598l4.242-13.55c.14-.45-.108-.926-.557-1.066-.443-.14-.924.11-1.065.557l-4.24 13.55c-.14.45.11.925.556 1.066z" stroke="none" stroke-width="1px"></path><circle fill="#000000" cx="8.378" cy="7.717" r="1.914" stroke="none" stroke-width="1px"></circle><circle opacity=".3" fill="#000000" cx="14.378" cy="7.717" r="1.914" stroke="none" stroke-width="1px"></circle><circle opacity=".3" fill="#000000" cx="20.378" cy="7.717" r="1.914" stroke="none" stroke-width="1px"></circle>
            </g>
                        </svg>